<?xml version="1.0" standalone="no"?>
<!DOCTYPE svg PUBLIC "-//W3C//DTD SVG 20010904//EN"
 "http://www.w3.org/TR/2001/REC-SVG-20010904/DTD/svg10.dtd">
<svg version="1.0" xmlns="http://www.w3.org/2000/svg"
 width="5000.000000pt" height="5000.000000pt" viewBox="0 0 5000.000000 5000.000000"
 preserveAspectRatio="xMidYMid meet">

<g transform="translate(0.000000,5000.000000) scale(0.100000,-0.100000)"
fill="#000000" stroke="none">
<path d="M25265 39090 c-254 -36 -473 -147 -647 -328 -107 -112 -189 -237
-237 -365 l-11 -27 1030 0 c567 0 1030 3 1030 6 0 3 -18 44 -39 90 -175 372
-539 613 -951 628 -63 3 -142 1 -175 -4z"/>
<path d="M23535 38865 c-295 -74 -420 -111 -661 -195 -821 -285 -1592 -710
-2259 -1245 -211 -170 -395 -329 -395 -342 0 -10 2063 -2073 2073 -2073 4 0
53 37 110 83 688 557 1537 920 2387 1021 69 8 151 18 183 21 52 6 57 9 57 30
0 20 -7 26 -42 35 -187 47 -423 146 -563 235 -440 281 -741 727 -837 1240 -31
168 -31 456 0 627 35 189 120 430 203 570 16 27 29 51 29 53 0 11 -46 1 -285
-60z"/>
<path d="M27040 38818 c151 -294 207 -542 197 -883 -6 -207 -23 -312 -78 -489
-195 -627 -717 -1106 -1361 -1250 -21 -5 -28 -12 -28 -30 0 -23 4 -24 83 -31
919 -76 1892 -478 2593 -1072 l62 -52 20 24 c14 16 17 25 9 29 -7 2 -1 5 13 5
20 1 22 3 10 11 -13 9 -13 10 0 11 8 0 4 5 -10 9 l-25 8 25 1 c20 1 22 3 10
11 -13 9 -13 10 0 11 8 0 4 5 -10 9 l-25 8 25 1 c20 1 22 3 10 11 -13 9 -13
10 0 11 8 0 4 5 -10 9 l-25 8 25 1 c20 1 22 3 10 11 -13 9 -13 10 0 11 8 0 4
5 -10 9 l-25 8 25 1 c20 1 22 3 10 11 -13 9 -13 10 0 11 8 0 4 5 -10 9 l-25 8
25 1 c20 1 22 3 10 11 -13 9 -13 10 0 10 13 0 13 1 0 10 -13 9 -13 10 0 10 13
0 13 1 0 10 -12 8 -10 10 10 11 l25 1 -25 8 c-14 4 -18 9 -10 9 13 1 13 2 0
11 -12 8 -10 10 10 11 l25 1 -25 8 c-14 4 -18 9 -10 9 13 1 13 2 0 11 -12 8
-10 10 10 11 l25 1 -25 8 c-14 4 -18 9 -10 9 13 1 13 3 1 10 -11 7 -9 10 10
14 l24 4 -24 2 -24 1 23 20 23 20 -23 0 -23 0 23 20 23 20 -24 1 -24 1 25 8
c14 4 18 9 10 9 -13 1 -13 2 0 11 12 8 10 10 -10 11 l-25 1 25 8 c14 4 18 9
10 9 -13 1 -13 2 0 11 12 8 10 10 -10 11 l-25 1 25 8 c14 4 18 9 10 9 -13 1
-13 3 -1 10 11 7 9 10 -10 14 l-24 4 25 2 c20 1 22 3 10 11 -13 9 -13 10 0 10
13 0 13 1 0 10 -13 9 -13 10 0 10 13 0 13 1 0 10 -12 8 -10 10 10 11 l25 1
-25 8 c-14 4 -18 9 -10 9 13 1 13 2 0 11 -12 8 -10 10 10 11 l25 1 -25 8 c-14
4 -18 9 -10 9 13 1 13 2 0 11 -12 8 -10 10 10 11 l25 1 -25 8 c-14 4 -18 9
-10 9 13 1 13 2 0 11 -12 8 -10 10 10 11 l25 1 -25 8 c-14 4 -18 9 -10 9 13 1
13 2 0 11 -12 8 -10 10 10 11 l25 1 -25 8 c-14 4 -18 9 -10 9 13 1 13 2 0 11
-12 8 -10 10 10 11 l25 1 -25 8 -25 8 25 2 25 2 -25 8 -25 8 25 2 25 2 -25 8
-25 8 25 2 25 2 -25 8 -25 8 25 2 25 2 -25 8 -25 8 25 1 c20 1 22 3 10 11 -13
9 -13 10 0 11 8 0 4 5 -10 9 l-25 8 25 1 c20 1 22 3 10 11 -13 9 -13 10 0 11
8 0 4 5 -10 9 l-25 8 25 1 c20 1 22 3 10 11 -13 9 -13 10 0 11 8 0 4 5 -10 9
l-25 8 25 1 c20 1 22 3 10 11 -13 9 -13 10 0 11 8 0 4 5 -10 9 l-25 8 25 1
c20 1 22 3 10 11 -13 9 -13 10 0 11 8 0 4 5 -10 9 l-25 8 25 1 c20 1 22 3 10
11 -13 9 -13 10 0 10 13 0 13 1 0 10 -13 9 -13 10 0 10 13 0 13 1 0 10 -13 9
-13 10 0 11 8 0 4 5 -10 9 l-25 8 25 1 c20 1 22 3 10 11 -13 9 -13 10 0 10 13
0 13 1 0 10 -13 9 -13 10 0 10 13 0 13 1 0 10 -12 8 -10 10 10 11 l25 1 -25 8
c-14 4 -18 9 -10 9 13 1 13 3 1 10 -11 7 -9 10 10 14 l24 4 -24 2 -24 1 23 20
23 20 -23 0 -23 0 23 20 23 20 -23 0 -23 0 23 20 23 20 -23 0 -23 0 23 20 23
20 -24 1 -24 1 25 8 c14 4 18 9 10 9 -13 1 -13 2 0 11 12 8 10 10 -9 10 l-24
0 23 20 c15 13 18 20 9 20 -11 0 -11 2 1 10 13 9 13 10 0 10 -13 0 -13 2 -1 9
11 7 9 10 -10 14 l-24 4 25 2 c20 1 22 3 10 11 -13 9 -13 10 0 10 13 0 13 1 0
10 -13 9 -13 10 0 10 13 0 13 1 0 10 -12 8 -10 10 10 11 l25 1 -25 8 c-14 4
-18 9 -10 9 13 1 13 2 0 11 -12 8 -10 10 10 11 l25 1 -25 8 c-14 4 -18 9 -10
9 13 1 13 2 0 11 -12 8 -10 10 10 11 l25 1 -25 8 c-14 4 -18 9 -10 9 13 1 13
2 0 11 -12 8 -10 10 10 11 l25 1 -25 8 c-14 4 -18 9 -10 9 13 1 13 2 0 11 -12
8 -10 10 10 11 l25 1 -25 8 c-14 4 -18 9 -10 9 13 1 13 2 0 11 -12 8 -10 10
10 11 l25 1 -25 8 -25 8 25 2 25 2 -25 8 -25 8 25 2 25 2 -25 8 -25 8 25 2 25
2 -25 8 -25 8 25 2 25 2 -25 8 -25 8 25 1 c20 1 22 3 10 11 -13 9 -13 10 0 11
8 0 4 5 -10 9 l-25 8 25 1 c20 1 22 3 10 11 -13 9 -13 10 0 11 8 0 4 5 -10 9
l-25 8 25 1 c20 1 22 3 10 11 -13 9 -13 10 0 11 8 0 4 5 -10 9 l-25 8 25 1
c20 1 22 3 10 11 -13 9 -13 10 0 11 8 0 4 5 -10 9 l-25 8 25 1 c20 1 22 3 10
11 -13 9 -13 10 0 11 8 0 4 5 -10 9 l-25 8 25 1 c20 1 22 3 10 11 -13 9 -13
10 0 10 13 0 13 1 0 10 -13 9 -13 10 0 10 13 0 13 2 1 9 -11 7 -9 10 10 14 19
3 16 5 -11 7 -33 2 -33 3 -10 10 14 4 18 9 10 9 -13 1 -13 2 0 11 13 9 13 10
0 10 -13 0 -13 1 0 10 13 9 13 10 0 11 -8 0 -4 5 10 9 l25 8 -25 1 c-20 1 -22
3 -10 11 13 9 13 10 0 11 -8 0 -4 5 10 9 l25 8 -24 1 -24 1 23 20 23 20 -23 0
-23 0 23 20 23 20 -23 0 -23 0 23 20 23 20 -23 0 -23 0 23 20 23 20 -24 1 -24
1 25 8 c14 4 18 9 10 9 -13 1 -13 2 0 11 12 8 10 10 -10 11 l-25 1 25 8 c14 4
18 9 10 9 -13 1 -13 2 0 11 13 9 13 10 0 10 -13 0 -13 1 0 10 13 9 13 10 0 11
-8 0 -4 5 10 9 23 7 23 8 -10 10 -27 2 -30 4 -11 7 19 4 21 7 10 14 -10 6 -8
9 11 10 l25 1 -25 8 c-14 4 -18 9 -10 9 13 1 13 2 0 11 -12 8 -10 10 10 11
l25 1 -25 8 c-14 4 -18 9 -10 9 13 1 13 2 0 11 -12 8 -10 10 10 11 l25 1 -25
8 c-14 4 -18 9 -10 9 13 1 13 2 0 11 -12 8 -10 10 10 11 l25 1 -25 8 c-14 4
-18 9 -10 9 13 1 13 2 0 11 -12 8 -10 10 10 11 l25 1 -25 8 -25 8 25 2 25 2
-25 8 -25 8 25 2 25 2 -25 8 c-14 4 -18 9 -10 9 13 1 13 2 0 11 -12 8 -10 10
10 11 l25 1 -25 8 -25 8 25 2 25 2 -25 8 -25 8 25 2 25 2 -25 8 -25 8 25 2 25
2 -25 8 -25 8 25 2 25 2 -25 8 -25 8 25 1 c20 1 22 3 10 11 -13 9 -13 10 0 11
8 0 4 5 -10 9 l-25 8 25 1 c20 1 22 3 10 11 -13 9 -13 10 0 11 8 0 4 5 -10 9
l-25 8 25 1 c20 1 22 3 10 11 -13 9 -13 10 0 11 8 0 4 5 -10 9 l-25 8 25 1
c20 1 22 3 10 11 -13 9 -13 10 0 11 8 0 4 5 -10 9 l-25 8 25 1 c20 1 22 3 10
11 -13 9 -13 10 0 11 8 0 4 5 -10 9 l-25 8 25 1 c20 1 22 3 10 11 -13 9 -13
10 0 10 13 0 13 1 0 10 -13 9 -13 10 0 10 8 0 -46 29 -121 64 -405 191 -950
375 -1439 486 -73 17 -133 30 -135 30 -2 0 23 -51 55 -112z"/>
<path d="M28748 37973 c7 -3 16 -2 19 1 4 3 -2 6 -13 5 -11 0 -14 -3 -6 -6z"/>
<path d="M28748 37893 c7 -3 16 -2 19 1 4 3 -2 6 -13 5 -11 0 -14 -3 -6 -6z"/>
<path d="M24375 37609 c18 -59 101 -210 151 -276 151 -196 352 -334 586 -399
112 -31 351 -44 465 -25 282 48 529 198 699 425 53 70 109 169 135 237 l19 49
-528 0 c-290 0 -754 3 -1031 7 l-503 6 7 -24z"/>
<path d="M18593 36505 c-272 -49 -521 -201 -684 -418 -55 -72 -136 -217 -153
-274 l-7 -23 1030 0 c723 0 1031 3 1031 11 0 6 -16 44 -35 85 -148 322 -456
557 -809 619 -106 18 -273 18 -373 0z"/>
<path d="M28668 35973 c7 -3 16 -2 19 1 4 3 -2 6 -13 5 -11 0 -14 -3 -6 -6z"/>
<path d="M28668 35893 c7 -3 16 -2 19 1 4 3 -2 6 -13 5 -11 0 -14 -3 -6 -6z"/>
<path d="M28668 35813 c7 -3 16 -2 19 1 4 3 -2 6 -13 5 -11 0 -14 -3 -6 -6z"/>
<path d="M20611 35583 c11 -88 10 -242 -2 -351 -93 -856 -749 -1527 -1602
-1637 -139 -18 -246 -19 -388 -4 -168 17 -351 60 -484 115 -33 14 -64 26 -69
27 -21 5 -173 -556 -230 -848 -68 -347 -115 -708 -132 -1018 l-7 -127 1469 2
1469 3 7 65 c48 430 112 735 228 1080 181 544 446 1028 807 1477 l94 117 -578
578 c-318 318 -580 578 -583 578 -4 0 -3 -26 1 -57z"/>
<path d="M24857 35380 c-676 -90 -1333 -360 -1885 -775 -80 -60 -147 -115
-149 -120 -2 -6 494 -507 1102 -1115 l1105 -1105 0 1568 c0 1486 -1 1567 -17
1566 -10 0 -80 -9 -156 -19z"/>
<path d="M25770 33833 l0 -1568 1105 1105 c607 608 1104 1107 1105 1110 0 3
-37 35 -83 71 -550 439 -1255 737 -1960 829 -87 11 -160 20 -163 20 -2 0 -4
-705 -4 -1567z"/>
<path d="M17759 35028 c108 -274 334 -508 595 -617 166 -69 362 -99 532 -82
327 34 640 222 809 486 36 56 99 178 109 213 l7 22 -1030 0 -1031 0 9 -22z"/>
<path d="M22217 33866 c-340 -431 -576 -907 -731 -1476 -41 -152 -106 -525
-106 -612 l0 -38 1560 0 c858 0 1560 3 1560 8 0 4 -497 504 -1104 1111 l-1103
1103 -76 -96z"/>
<path d="M28481 33927 c-6 -8 -7 -18 -3 -22 4 -5 2 -5 -4 -2 -5 3 -496 -480
-1090 -1074 l-1079 -1079 1065 0 c691 0 1060 4 1050 10 -12 8 -10 10 10 11
l25 1 -25 8 c-14 4 -18 9 -10 9 13 1 13 2 0 11 -12 8 -10 10 10 11 l25 1 -25
8 c-14 4 -18 9 -10 9 13 1 13 2 0 11 -12 8 -10 10 10 11 l25 1 -25 8 -25 8 25
2 25 2 -25 8 -25 8 25 2 25 2 -25 8 c-14 4 -18 9 -10 9 13 1 13 2 0 11 -12 8
-10 10 10 11 l25 1 -25 8 -25 8 25 1 c20 1 22 3 10 11 -13 9 -13 10 0 11 8 0
4 5 -10 9 l-25 8 25 2 25 2 -25 8 -25 8 25 2 25 2 -25 8 -25 8 25 1 c20 1 22
3 10 11 -13 9 -13 10 0 11 8 0 4 5 -10 9 l-25 8 25 1 c20 1 22 3 10 11 -13 9
-13 10 0 11 8 0 4 5 -10 9 l-25 8 25 1 c20 1 22 3 10 11 -13 9 -13 10 0 11 8
0 4 5 -10 9 l-25 8 25 1 c20 1 22 3 10 11 -13 9 -13 10 0 11 8 0 4 5 -10 9
l-25 8 25 1 c20 1 22 3 10 11 -13 9 -13 10 0 11 8 0 4 5 -10 9 l-25 8 25 1
c20 1 22 3 10 11 -13 9 -13 10 0 10 13 0 13 1 0 10 -13 9 -13 10 0 10 13 0 13
2 1 9 -11 7 -9 10 10 14 l24 4 -25 2 c-20 1 -22 3 -10 11 13 9 13 10 0 10 -13
0 -13 1 0 10 12 8 12 10 1 10 -9 0 -6 7 9 20 l23 20 -24 0 c-19 0 -21 2 -9 10
13 9 13 10 0 11 -8 0 -4 5 10 9 l25 8 -24 1 -24 1 23 20 23 20 -23 0 -23 0 23
20 23 20 -23 0 -23 0 23 20 23 20 -23 0 -23 0 23 20 23 20 -24 1 -24 1 25 8
c14 4 18 9 10 9 -13 1 -13 3 -1 10 11 7 9 10 -10 14 l-24 4 25 2 c20 1 22 3
10 11 -13 9 -13 10 0 10 13 0 13 1 0 10 -13 9 -13 10 0 10 13 0 13 1 0 10 -12
8 -10 10 10 11 l25 1 -25 8 c-14 4 -18 9 -10 9 13 1 13 2 0 11 -12 8 -10 10
10 11 l25 1 -25 8 c-14 4 -18 9 -10 9 13 1 13 2 0 11 -12 8 -10 10 10 11 l25
1 -25 8 c-14 4 -18 9 -10 9 13 1 13 2 0 11 -12 8 -10 10 10 11 l25 1 -25 8
c-14 4 -18 9 -10 9 13 1 13 2 0 11 -12 8 -10 10 10 11 l25 1 -25 8 c-14 4 -18
9 -10 9 13 1 13 2 0 11 -12 8 -10 10 10 11 l25 1 -25 8 -25 8 25 2 25 2 -25 8
-25 8 25 2 25 2 -25 8 c-14 4 -18 9 -10 9 13 1 13 2 0 11 -12 8 -10 10 10 11
l25 1 -25 8 -25 8 25 1 c20 1 22 3 10 11 -13 9 -13 10 0 11 8 0 4 5 -10 9
l-25 8 25 2 25 2 -25 8 -25 8 25 2 25 2 -25 8 -25 8 25 1 c20 1 22 3 10 11
-13 9 -13 10 0 11 8 0 4 5 -10 9 l-25 8 25 1 c20 1 22 3 10 11 -13 9 -13 10 0
11 8 0 4 5 -10 9 l-25 8 25 1 c20 1 22 3 10 11 -13 9 -13 10 0 11 8 0 4 5 -10
9 l-25 8 25 1 c20 1 22 3 10 11 -13 9 -13 10 0 11 8 0 4 5 -10 9 l-25 8 25 1
c20 1 22 3 10 11 -13 9 -13 10 0 11 8 0 4 5 -10 9 l-25 8 25 1 c20 1 22 3 10
11 -13 9 -13 10 0 10 13 0 13 1 0 10 -13 9 -13 10 0 10 13 0 13 1 0 10 -12 8
-10 10 10 11 l25 1 -25 8 c-14 4 -18 9 -10 9 13 1 13 3 1 10 -11 7 -9 10 10
14 l24 4 -24 2 -24 1 23 20 23 20 -24 0 c-19 0 -21 2 -9 10 13 9 13 10 0 11
-8 0 -4 5 10 9 l25 8 -24 1 -24 1 23 20 23 20 -23 0 -23 0 23 20 23 20 -24 1
-24 1 25 8 c14 4 18 9 10 9 -13 1 -13 2 0 11 12 8 10 10 -10 11 l-25 1 25 8
c14 4 18 9 10 9 -13 1 -13 2 0 11 12 8 10 10 -10 11 l-25 1 25 8 c14 4 18 9
10 10 -8 1 -4 6 10 10 23 7 23 8 -10 10 -33 2 -33 3 -10 10 14 4 18 9 10 9
-13 1 -13 2 0 11 13 9 13 10 0 10 -13 0 -13 1 0 10 13 9 13 10 0 11 -8 0 -4 5
10 9 l25 8 -25 1 c-20 1 -22 3 -10 11 13 9 13 10 0 11 -8 0 -4 5 10 9 l25 8
-25 1 c-20 1 -22 3 -10 11 13 9 13 10 0 11 -8 0 -4 5 10 9 l25 8 -25 1 c-20 1
-22 3 -10 11 13 9 13 10 0 11 -8 0 -4 5 10 9 l25 8 -25 1 c-20 1 -22 3 -10 11
13 9 13 10 0 11 -8 0 -4 5 10 9 l25 8 -25 1 c-20 1 -22 3 -10 11 13 9 13 10 0
11 -10 0 -8 3 5 9 15 7 16 9 4 9 -9 1 -22 -5 -28 -12z"/>
<path d="M28588 33813 c7 -3 16 -2 19 1 4 3 -2 6 -13 5 -11 0 -14 -3 -6 -6z"/>
<path d="M28508 31893 c7 -3 16 -2 19 1 4 3 -2 6 -13 5 -11 0 -14 -3 -6 -6z"/>
<path d="M28508 31813 c7 -3 16 -2 19 1 4 3 -2 6 -13 5 -11 0 -14 -3 -6 -6z"/>
<path d="M27235 31670 c-153 -40 -213 -62 -515 -188 -483 -202 -583 -231 -820
-239 -166 -6 -263 9 -372 56 l-48 20 0 120 c0 68 -5 131 -11 145 -15 33 -59
48 -98 35 -38 -13 -44 -28 -50 -123 l-6 -80 -37 33 -38 33 0 -955 0 -955 40
-32 40 -32 0 -753 0 -753 -140 -91 c-77 -50 -142 -91 -145 -91 -3 0 -6 399 -7
886 l-3 886 -447 -1023 c-247 -563 -444 -1027 -440 -1031 4 -4 77 -27 162 -52
l154 -44 -55 -35 c-30 -19 -396 -256 -813 -526 -418 -270 -761 -490 -763 -488
-2 2 71 174 162 381 91 208 165 379 165 381 0 1 -54 33 -119 69 -204 114 -469
298 -709 493 l-33 27 -1040 -1040 -1040 -1039 51 -47 c83 -77 326 -277 465
-383 72 -54 134 -101 138 -105 6 -5 -745 -502 -783 -518 -4 -1 -23 22 -44 53
-81 123 -253 267 -407 343 -203 99 -424 132 -649 97 -302 -46 -579 -224 -746
-480 -49 -76 -114 -204 -114 -226 0 -5 328 -9 800 -9 440 0 800 -3 799 -7 0
-5 -251 -170 -557 -368 l-557 -360 -248 -5 -248 -5 59 -117 59 -117 -3760
-2435 -3760 -2436 2240 0 2240 0 1649 1537 c907 845 2368 2207 3248 3027 879
820 1602 1492 1607 1494 5 2 67 -26 138 -62 71 -36 134 -66 139 -66 5 0 74
147 152 328 79 180 148 334 154 343 13 18 1350 1268 1353 1265 2 -1 -160 -374
-359 -829 l-361 -826 -2339 -3100 c-1286 -1704 -2338 -3102 -2338 -3105 0 -3
371 -6 825 -6 727 0 825 -2 825 -15 0 -13 453 -15 4018 -15 2597 0 4012 4
4002 10 -12 8 -10 10 10 12 14 2 -263 5 -615 8 l-640 5 -37 283 c-20 155 -35
295 -34 311 1 17 -2 28 -6 25 -4 -3 -8 11 -8 30 l0 36 -1165 0 c-1085 0 -1165
1 -1165 17 0 30 92 718 97 723 3 3 188 7 411 9 l407 3 -116 23 c-204 41 -410
120 -583 223 l-78 47 5 55 c2 30 29 237 58 458 l53 404 20 -28 c143 -196 385
-360 621 -419 373 -95 764 15 1040 291 35 35 78 84 96 109 18 25 34 44 35 42
2 -2 28 -192 58 -422 31 -231 58 -435 61 -452 5 -30 2 -35 -42 -63 -187 -118
-450 -219 -663 -255 -67 -12 -31 -13 336 -14 l411 -1 6 -37 c3 -21 16 -117 28
-213 12 -96 26 -179 30 -184 4 -5 15 -1 24 8 15 15 15 16 -6 16 l-22 0 23 20
c15 13 18 20 9 20 -11 0 -11 2 1 10 13 9 13 10 0 10 -13 0 -13 1 0 10 13 9 13
10 0 10 -13 0 -13 1 0 10 13 9 13 10 0 10 -13 0 -13 1 0 10 13 9 13 10 0 10
-13 0 -13 1 0 10 13 9 13 10 0 10 -13 0 -13 1 0 10 13 9 13 10 0 10 -13 0 -13
1 0 10 13 9 13 10 0 10 -13 0 -13 1 0 10 13 9 13 10 0 10 -13 0 -13 1 0 10 13
9 13 10 0 10 -13 0 -13 1 0 10 13 9 13 10 0 10 -13 0 -13 1 0 10 13 9 13 10 0
11 -8 0 -4 5 10 9 l25 8 -24 1 -24 1 23 20 23 20 -23 0 -23 0 23 20 c15 13 18
20 9 20 -11 0 -11 2 1 10 13 9 13 10 0 10 -13 0 -13 1 0 10 13 9 13 10 0 10
-13 0 -13 1 0 10 13 9 13 10 0 10 -13 0 -13 1 0 10 13 9 13 10 0 10 -13 0 -13
1 0 10 13 9 13 10 0 10 -13 0 -13 1 0 10 13 9 13 10 0 10 -13 0 -13 1 0 10 13
9 13 10 0 10 -13 0 -13 1 0 10 12 8 12 10 1 10 -9 0 -6 7 9 20 l23 20 -23 0
-23 0 23 20 23 20 -24 1 -24 1 25 8 c14 4 18 9 10 9 -13 1 -13 2 0 11 13 9 13
10 0 10 -13 0 -13 1 0 10 13 9 13 10 0 10 -13 0 -13 1 0 10 13 9 13 10 0 10
-13 0 -13 1 0 10 13 9 13 10 0 10 -13 0 -13 1 0 10 13 9 13 10 0 10 -13 0 -13
1 0 10 13 9 13 10 0 10 -13 0 -13 1 0 10 13 9 13 10 0 10 -13 0 -13 1 0 10 13
9 13 10 0 10 -13 0 -13 1 0 10 13 9 13 10 0 10 -13 0 -13 1 0 10 13 9 13 10 0
10 -13 0 -13 1 0 10 12 8 12 10 1 10 -9 0 -6 7 9 20 l23 20 -23 0 -23 0 23 20
c21 18 21 20 4 21 -18 0 -18 1 1 9 13 6 15 9 5 9 -13 1 -13 2 0 11 13 9 13 10
0 10 -13 0 -13 1 0 10 13 9 13 10 0 10 -13 0 -13 1 0 10 13 9 13 10 0 10 -13
0 -13 1 0 10 13 9 13 10 0 10 -13 0 -13 1 0 10 13 9 13 10 0 10 -13 0 -13 1 0
10 13 9 13 10 0 10 -13 0 -13 1 0 10 12 8 12 10 1 10 -9 0 -6 7 9 20 l23 20
-23 0 -23 0 23 20 23 20 -24 1 -24 1 25 8 c14 4 18 9 10 9 -13 1 -13 2 0 11
13 9 13 10 0 10 -13 0 -13 1 0 10 13 9 13 10 0 10 -13 0 -13 1 0 10 13 9 13
10 0 10 -13 0 -13 1 0 10 13 9 13 10 0 10 -13 0 -13 1 0 10 13 9 13 10 0 10
-13 0 -13 1 0 10 13 9 13 10 0 10 -13 0 -13 1 0 10 13 9 13 10 0 10 -13 0 -13
1 0 10 13 9 13 10 0 10 -13 0 -13 1 0 10 13 9 13 10 0 10 -13 0 -13 1 0 10 13
9 13 10 0 10 -13 0 -13 1 0 10 12 8 12 10 1 10 -9 0 -6 7 9 20 l23 20 -23 0
-23 0 23 20 c21 18 21 20 4 21 -18 0 -18 1 1 9 13 6 15 9 5 9 -13 1 -13 2 0
11 13 9 13 10 0 10 -13 0 -13 1 0 10 13 9 13 10 0 10 -13 0 -13 1 0 10 13 9
13 10 0 10 -13 0 -13 1 0 10 13 9 13 10 0 10 -13 0 -13 1 0 10 13 9 13 10 0
10 -13 0 -13 1 0 10 13 9 13 10 0 10 -13 0 -13 1 0 10 12 8 12 10 1 10 -9 0
-6 7 9 20 l23 20 -23 0 -23 0 23 20 23 20 -24 1 -24 1 25 8 c14 4 18 9 10 9
-13 1 -13 2 0 11 13 9 13 10 0 10 -13 0 -13 1 0 10 13 9 13 10 0 10 -13 0 -13
1 0 10 13 9 13 10 0 10 -13 0 -13 1 0 10 13 9 13 10 0 10 -13 0 -13 1 0 10 13
9 13 10 0 10 -13 0 -13 1 0 10 13 9 13 10 0 10 -13 0 -13 1 0 10 13 9 13 10 0
10 -13 0 -13 1 0 10 13 9 13 10 0 10 -13 0 -13 1 0 10 13 9 13 10 0 10 -13 0
-13 1 0 10 13 9 13 10 0 10 -13 0 -13 1 0 10 12 8 12 10 1 10 -9 0 -6 7 9 20
l23 20 -23 0 -23 0 23 20 23 20 -24 1 -24 1 25 8 c14 4 18 9 10 9 -13 1 -13 2
0 11 13 9 13 10 0 10 -13 0 -13 1 0 10 13 9 13 10 0 10 -13 0 -13 1 0 10 13 9
13 10 0 10 -13 0 -13 1 0 10 13 9 13 10 0 10 -13 0 -13 1 0 10 13 9 13 10 0
10 -13 0 -13 1 0 10 13 9 13 10 0 10 -13 0 -13 1 0 10 12 8 12 10 1 10 -9 0
-6 7 9 20 l23 20 -23 0 -23 0 23 20 23 20 -24 1 -24 1 25 8 c14 4 18 9 10 9
-13 1 -13 2 0 11 13 9 13 10 0 10 -13 0 -13 1 0 10 13 9 13 10 0 10 -13 0 -13
1 0 10 13 9 13 10 0 10 -13 0 -13 1 0 10 13 9 13 10 0 10 -13 0 -13 1 0 10 13
9 13 10 0 10 -13 0 -13 1 0 10 13 9 13 10 0 10 -13 0 -13 1 0 10 13 9 13 10 0
10 -13 0 -13 1 0 10 13 9 13 10 0 10 -13 0 -13 1 0 10 13 9 13 10 0 10 -13 0
-13 1 0 10 13 9 13 10 0 10 -13 0 -13 1 0 10 12 8 12 10 1 10 -9 0 -6 7 9 20
l23 20 -23 0 -23 0 23 20 c21 18 21 20 4 21 -18 0 -18 1 1 9 13 6 15 9 5 9
-13 1 -13 2 0 11 13 9 13 10 0 10 -13 0 -13 1 0 10 13 9 13 10 0 10 -13 0 -13
1 0 10 13 9 13 10 0 10 -13 0 -13 1 0 10 13 9 13 10 0 10 -13 0 -13 1 0 10 13
9 13 10 0 10 -13 0 -13 1 0 10 13 9 13 10 0 10 -13 0 -13 1 0 10 12 8 12 10 1
10 -9 0 -6 7 9 20 l23 20 -23 0 -23 0 23 20 23 20 -24 1 -24 1 25 8 c14 4 18
9 10 9 -13 1 -13 2 0 11 12 8 10 10 -10 11 l-25 1 25 8 c14 4 18 9 10 9 -13 1
-13 2 0 11 13 9 13 10 0 10 -13 0 -13 1 0 10 13 9 13 10 0 10 -13 0 -13 1 0
10 13 9 13 10 0 10 -13 0 -13 1 0 10 13 9 13 10 0 10 -13 0 -13 1 0 10 13 9
13 10 0 10 -13 0 -13 1 0 10 13 9 13 10 0 10 -13 0 -13 1 0 10 13 9 13 10 0
10 -13 0 -13 1 0 10 13 9 13 10 0 10 -13 0 -13 1 0 10 12 8 12 10 1 10 -9 0
-6 7 9 20 l23 20 -23 0 -23 0 23 20 23 20 -24 1 -24 1 25 8 c14 4 18 9 10 9
-13 1 -13 2 0 11 12 8 12 10 -5 11 l-20 0 20 9 c13 6 15 9 5 9 -13 1 -13 2 0
11 13 9 13 10 0 10 -13 0 -13 1 0 10 13 9 13 10 0 10 -13 0 -13 1 0 10 13 9
13 10 0 10 -13 0 -13 1 0 10 13 9 13 10 0 10 -13 0 -13 1 0 10 12 8 12 10 1
10 -9 0 -6 7 9 20 l23 20 -23 0 -23 0 23 20 23 20 -24 1 -24 1 25 8 c14 4 18
9 10 9 -13 1 -13 2 0 11 13 9 13 10 0 10 -13 0 -13 1 0 10 13 9 13 10 0 10
-13 0 -13 1 0 10 13 9 13 10 0 10 -13 0 -13 1 0 10 13 9 13 10 0 10 -13 0 -13
1 0 10 13 9 13 10 0 10 -13 0 -13 1 0 10 13 9 13 10 0 10 -13 0 -13 1 0 10 13
9 13 10 0 10 -13 0 -13 1 0 10 13 9 13 10 0 10 -13 0 -13 1 0 10 13 9 13 10 0
10 -13 0 -13 1 0 10 13 9 13 10 0 10 -13 0 -13 1 0 10 12 8 12 10 1 10 -9 0
-6 7 9 20 l23 20 -23 0 -23 0 23 20 23 20 -24 1 -24 1 25 8 c14 4 18 9 10 9
-13 1 -13 2 0 11 13 9 13 10 0 10 -13 0 -13 1 0 10 13 9 13 10 0 10 -13 0 -13
1 0 10 13 9 13 10 0 10 -13 0 -13 1 0 10 13 9 13 10 0 10 -13 0 -13 1 0 10 13
9 13 10 0 10 -13 0 -13 1 0 10 13 9 13 10 0 10 -13 0 -13 1 0 10 8 5 10 10 4
10 -6 0 -11 8 -10 18 0 9 -19 81 -43 159 -24 79 -42 145 -40 147 2 2 96 23
209 45 213 43 562 131 558 141 -2 3 -119 236 -261 518 -142 282 -255 518 -251
524 4 6 3 8 -3 5 -13 -8 -26 20 -16 35 3 7 1 8 -5 4 -11 -6 -17 12 -13 37 0 4
-5 7 -11 7 -9 0 -8 4 2 10 13 9 13 10 0 10 -13 0 -13 1 0 10 12 8 12 10 1 10
-9 0 -6 7 9 20 l23 20 -23 0 -23 0 23 20 23 20 -24 1 -24 1 25 8 c14 4 18 9
10 9 -13 1 -13 2 0 11 12 8 10 10 -10 11 l-25 1 25 8 c14 4 18 9 10 9 -13 1
-13 2 0 11 13 9 13 10 0 10 -13 0 -13 1 0 10 13 9 13 10 0 10 -13 0 -13 1 0
10 13 9 13 10 0 10 -13 0 -13 1 0 10 13 9 13 10 0 10 -13 0 -13 1 0 10 13 9
13 10 0 10 -13 0 -13 1 0 10 13 9 13 10 0 10 -13 0 -13 1 0 10 13 9 13 10 0
10 -13 0 -13 1 0 10 13 9 13 10 0 10 -13 0 -13 1 0 10 13 9 13 10 0 10 -13 0
-13 1 0 10 8 5 11 10 5 11 -5 0 -1 4 10 9 19 8 18 9 -4 9 l-24 1 23 20 23 20
-24 1 -24 1 25 8 c14 4 18 9 10 9 -13 1 -13 2 0 11 12 8 12 10 -5 11 l-20 0
20 9 c13 6 15 9 5 9 -13 1 -13 2 0 11 13 9 13 10 0 10 -13 0 -13 1 0 10 13 9
13 10 0 10 -13 0 -13 1 0 10 13 9 13 10 0 10 -13 0 -13 1 0 10 13 9 13 10 0
10 -13 0 -13 1 0 10 13 9 13 10 0 10 -13 0 -13 1 0 10 13 9 13 10 0 11 -8 0
-4 5 10 9 l25 8 -24 1 -24 1 23 20 23 20 -23 0 -23 0 22 19 22 19 -23 5 c-22
4 -22 4 2 6 20 1 22 3 10 11 -13 9 -13 10 0 10 13 0 13 1 0 10 -13 9 -13 10 0
10 13 0 13 1 0 10 -13 9 -13 10 0 10 13 0 13 1 0 10 -12 8 -12 10 -1 10 18 0
52 -40 44 -53 -3 -5 -2 -7 4 -4 6 4 23 -10 40 -31 53 -66 225 -291 611 -797
176 -231 168 -221 144 -160 -42 106 -654 1511 -677 1553 -15 29 -105 129 -111
125 -2 -2 -4 0 -3 3 0 4 -5 11 -13 15 -10 7 -10 9 2 9 13 0 13 1 0 10 -11 7
-11 10 -2 10 7 0 11 4 7 9 -3 5 3 12 12 14 13 3 11 5 -6 6 l-24 1 23 20 23 20
-24 1 -24 1 25 8 c14 4 18 9 10 9 -13 1 -13 2 0 11 12 8 10 10 -10 11 l-25 1
25 8 c14 4 18 9 10 9 -13 1 -13 2 0 11 13 9 13 10 0 10 -13 0 -13 1 0 10 13 9
13 10 0 10 -13 0 -13 1 0 10 13 9 13 10 0 10 -13 0 -13 1 0 10 13 9 13 10 0
10 -13 0 -13 1 0 10 13 9 13 10 0 10 -13 0 -13 1 0 10 13 9 13 10 0 11 -8 0
-4 5 10 9 l25 8 -24 1 -24 1 23 20 23 20 -23 0 -23 0 23 20 23 20 -24 1 c-19
0 -20 2 -7 7 10 4 14 12 10 18 -4 7 -167 116 -362 243 -195 128 -356 235 -357
239 -2 4 67 27 152 51 86 24 158 47 160 51 3 4 -168 404 -380 889 -212 485
-385 886 -385 890 0 5 24 12 53 16 177 22 321 62 522 145 55 23 109 42 119 43
20 2 47 -59 690 -1526 l68 -157 77 42 c103 57 292 182 413 276 55 42 109 83
120 91 18 14 -20 53 -628 662 -412 412 -645 652 -639 658 29 27 425 179 527
201 32 7 55 17 52 22 -3 4 1 8 8 8 9 0 9 3 -2 10 -13 9 -13 10 0 10 13 0 13 1
0 10 -13 9 -13 10 0 10 13 0 13 1 0 10 -13 9 -13 10 0 10 13 0 13 1 0 10 -13
9 -13 10 0 10 13 0 13 1 0 10 -13 9 -13 10 0 10 13 0 13 1 0 10 -13 9 -13 10
0 10 13 0 13 1 0 10 -13 9 -13 10 0 10 13 0 13 1 0 10 -12 8 -10 10 10 11 l25
1 -25 8 c-14 4 -19 8 -12 9 7 1 11 5 7 10 -3 5 3 12 12 14 13 3 11 5 -6 6
l-24 1 23 20 23 20 -24 1 -24 1 25 8 c14 4 18 9 10 9 -13 1 -13 2 0 11 13 9
13 10 0 10 -13 0 -13 1 0 10 13 9 13 10 0 10 -13 0 -13 1 0 10 13 9 13 10 0
10 -13 0 -13 1 0 10 13 9 13 10 0 10 -13 0 -13 1 0 10 13 9 13 10 0 10 -13 0
-13 1 0 10 13 9 13 10 0 11 -8 0 -4 5 10 9 l25 8 -25 1 c-20 1 -22 3 -10 11
13 9 13 10 0 11 -8 0 -4 5 10 9 l25 8 -24 1 -24 1 23 20 23 20 -23 0 -23 0 23
20 c15 13 18 20 9 20 -11 0 -11 2 1 10 13 9 13 10 0 10 -13 0 -13 1 0 10 13 9
13 10 0 10 -13 0 -13 1 0 10 13 9 13 10 0 10 -13 0 -13 1 0 10 13 9 13 10 0
10 -13 0 -13 1 0 10 13 9 13 10 0 10 -13 0 -13 1 0 10 13 9 13 10 0 10 -13 0
-13 1 0 10 13 9 13 10 0 10 -13 0 -13 1 0 10 13 9 13 10 0 10 -13 0 -13 1 0
10 13 9 13 10 0 10 -13 0 -13 1 0 10 13 9 13 10 0 10 -13 0 -13 1 0 10 13 9
13 10 0 11 -8 0 -4 5 10 9 l25 8 -24 1 -24 1 23 20 23 20 -23 0 -23 0 23 20
c15 13 18 20 9 20 -11 0 -11 2 1 10 13 9 13 10 0 10 -13 0 -13 1 0 10 13 9 13
10 0 10 -13 0 -13 1 0 10 13 9 13 10 0 10 -13 0 -13 1 0 10 13 9 13 10 0 10
-13 0 -13 1 0 10 13 9 13 10 0 11 -8 0 -4 5 10 9 l25 8 -25 1 c-20 1 -22 3
-10 11 13 9 13 10 0 11 -8 0 -4 5 10 9 l25 8 -24 1 -24 1 23 20 23 20 -24 1
c-17 1 -19 3 -6 6 9 2 15 9 12 14 -4 5 0 9 7 9 9 0 9 3 -2 10 -13 9 -13 10 0
10 13 0 13 1 0 10 -13 9 -13 10 0 10 13 0 13 1 0 10 -13 9 -13 10 0 10 13 0
13 1 0 10 -13 9 -13 10 0 10 13 0 13 1 0 10 -13 9 -13 10 0 10 13 0 13 1 0 10
-13 9 -13 10 0 10 13 0 13 1 0 10 -13 9 -13 10 0 10 13 0 13 1 0 10 -13 9 -13
10 0 10 13 0 13 1 0 10 -13 9 -13 10 0 10 13 0 13 1 0 10 -12 8 -10 10 10 11
l25 1 -25 8 c-14 4 -19 8 -12 9 7 1 11 5 7 10 -3 5 3 12 12 14 13 3 11 5 -6 6
l-24 1 23 20 23 20 -23 0 -23 0 23 20 c15 13 18 20 9 20 -11 0 -11 2 1 10 13
9 13 10 0 10 -13 0 -13 1 0 10 13 9 13 10 0 10 -13 0 -13 1 0 10 13 9 13 10 0
10 -13 0 -13 1 0 10 13 9 13 10 0 10 -13 0 -13 1 0 10 13 9 13 10 0 10 -13 0
-13 1 0 10 13 9 13 10 0 10 -13 0 -13 1 0 10 13 9 13 10 0 11 -8 0 -4 5 10 9
l25 8 -24 1 -24 1 23 20 23 20 -23 0 -23 0 23 20 c15 13 18 20 9 20 -11 0 -11
2 1 10 13 9 13 10 0 10 -13 0 -13 1 0 10 13 9 13 10 0 10 -13 0 -13 1 0 10 13
9 13 10 0 10 -13 0 -13 1 0 10 13 9 13 10 0 10 -13 0 -13 1 0 10 13 9 13 10 0
10 -13 0 -13 1 0 10 13 9 13 10 0 10 -13 0 -13 1 0 10 13 9 13 10 0 10 -13 0
-13 1 0 10 13 9 13 10 0 10 -13 0 -13 1 0 10 13 9 13 10 0 10 -13 0 -13 1 0
10 13 9 13 10 0 10 -12 0 -13 2 -1 9 11 7 11 9 0 14 -8 3 -3 6 11 7 l25 2 -25
8 c-40 13 -59 11 -175 -20z m-1800 -820 c-3 -5 1 -10 9 -10 14 0 16 -143 16
-1416 l0 -1415 155 -145 155 -145 0 -75 c0 -41 -2 -74 -4 -74 -2 0 -74 95
-161 210 -87 116 -159 210 -162 210 -3 0 42 -91 100 -202 398 -773 578 -1130
573 -1136 -7 -7 -191 -31 -242 -32 l-30 0 -215 689 c-117 379 -215 689 -216
688 -1 -1 79 -614 178 -1362 l179 -1360 0 -802 0 -803 103 7 104 6 5 -29 c16
-81 130 -985 125 -990 -3 -3 -34 16 -69 42 -86 64 -246 139 -365 171 -88 24
-116 27 -268 27 -142 0 -184 -3 -255 -21 -150 -38 -312 -116 -417 -200 -35
-28 -43 -31 -43 -17 0 10 29 239 65 510 36 271 65 496 65 500 0 4 47 4 105 1
l105 -7 0 799 0 798 160 1219 c88 670 169 1284 180 1363 11 80 19 146 17 147
-1 1 -99 -308 -217 -687 -210 -675 -215 -689 -240 -689 -40 1 -241 27 -246 33
-3 2 132 272 299 598 368 718 383 748 364 729 -8 -8 -77 -98 -153 -199 -76
-102 -144 -192 -151 -200 -10 -13 -12 -1 -13 61 l0 76 154 144 153 143 7 485
c3 267 8 591 11 720 3 129 8 549 11 932 6 574 9 698 21 702 11 5 13 -216 12
-1380 0 -762 2 -1389 5 -1392 3 -3 6 199 6 449 0 669 11 2312 16 2327 2 6 6
12 9 12 4 0 3 -4 0 -10z m130 -1470 c28 -10 79 -24 115 -30 36 -7 71 -14 78
-16 9 -3 12 -163 12 -760 0 -619 -2 -755 -13 -751 -7 3 -73 44 -145 92 l-132
87 0 705 c0 668 1 705 18 698 9 -4 40 -15 67 -25z m-757 -2003 l73 -12 -241
-320 c-132 -176 -247 -324 -254 -329 -20 -14 -340 68 -334 85 2 4 143 139 313
298 344 322 309 300 443 278z m1638 -286 c293 -273 315 -295 293 -303 -52 -20
-285 -78 -309 -78 -21 1 -63 52 -265 322 -132 176 -241 324 -243 328 -4 9 112
28 165 26 41 -1 52 -10 359 -295z m-3007 -3175 c138 -38 393 -96 539 -122 58
-10 92 -21 89 -28 -2 -6 -53 -167 -112 -358 -82 -264 -112 -348 -124 -348 -28
0 -298 60 -494 110 -267 68 -382 104 -380 118 6 28 338 662 346 662 6 0 67
-15 136 -34z m2741 -1745 c0 -5 20 -161 45 -348 25 -186 45 -348 45 -360 l0
-23 -871 0 -872 0 6 43 c3 23 25 189 48 370 l43 327 778 0 c455 0 778 -4 778
-9z m-3300 -2210 c0 -12 -218 -709 -225 -721 -8 -12 -1778 -14 -1773 -2 2 5
86 172 188 370 l185 362 813 0 c458 0 812 -4 812 -9z"/>
<path d="M27428 31243 c7 -3 16 -2 19 1 4 3 -2 6 -13 5 -11 0 -14 -3 -6 -6z"/>
<path d="M17225 31004 c-400 -38 -739 -273 -906 -628 -21 -46 -39 -89 -39 -95
0 -8 286 -11 1031 -11 l1030 0 -6 23 c-36 121 -147 288 -273 408 -150 143
-325 237 -519 279 -90 19 -246 31 -318 24z"/>
<path d="M18780 31005 c0 -2 29 -48 64 -102 349 -534 399 -1157 142 -1744
-129 -292 -374 -586 -628 -754 -32 -21 -58 -39 -58 -41 0 -14 112 -256 201
-434 214 -428 456 -818 745 -1200 101 -134 321 -401 405 -493 l44 -48 1038
1039 1038 1038 -69 85 c-495 608 -828 1307 -981 2059 -30 147 -64 369 -78 515
l-8 80 -927 3 c-511 1 -928 0 -928 -3z"/>
<path d="M21384 30925 c7 -103 47 -333 80 -475 138 -582 384 -1092 764 -1579
l65 -83 1103 1103 c607 607 1104 1107 1104 1111 0 5 -703 8 -1561 8 l-1562 0
7 -85z"/>
<path d="M28160 30280 l0 -721 -65 50 c-173 133 -356 201 -538 201 l-62 0 410
-410 c225 -225 414 -410 420 -410 5 0 3 5 -5 10 -13 9 -13 10 0 11 8 0 4 5
-10 9 l-25 8 25 1 c20 1 22 3 10 11 -13 9 -13 10 0 11 8 0 4 5 -10 9 l-25 8
25 1 c20 1 22 3 10 11 -13 9 -13 10 0 11 8 0 4 5 -10 9 l-25 8 25 1 c20 1 22
3 10 11 -13 9 -13 10 0 11 8 0 4 5 -10 9 l-25 8 25 1 c20 1 22 3 10 11 -13 9
-13 10 0 11 8 0 4 5 -10 9 l-25 8 25 1 c20 1 22 3 10 11 -13 9 -13 10 0 10 13
0 13 1 0 10 -13 9 -13 10 0 10 13 0 13 1 0 10 -12 8 -10 10 10 11 l25 1 -25 8
c-14 4 -18 9 -10 9 13 1 13 2 0 11 -12 8 -10 10 10 11 l25 1 -25 8 c-14 4 -18
9 -10 9 13 1 13 2 0 11 -12 8 -10 10 10 11 l25 1 -25 8 c-14 4 -18 9 -10 9 13
1 13 3 1 10 -11 7 -9 10 10 14 l24 4 -24 2 -24 1 23 20 23 20 -23 0 -23 0 23
20 23 20 -24 1 -24 1 25 8 c14 4 18 9 10 9 -13 1 -13 2 0 11 12 8 10 10 -10
11 l-25 1 25 8 c14 4 18 9 10 9 -13 1 -13 2 0 11 12 8 10 10 -10 11 l-25 1 25
8 c14 4 18 9 10 9 -13 1 -13 3 -1 10 11 7 9 10 -10 14 l-24 4 25 2 c20 1 22 3
10 11 -13 9 -13 10 0 10 13 0 13 1 0 10 -13 9 -13 10 0 10 13 0 13 1 0 10 -12
8 -10 10 10 11 l25 1 -25 8 c-14 4 -18 9 -10 9 13 1 13 2 0 11 -12 8 -10 10
10 11 l25 1 -25 8 c-14 4 -18 9 -10 9 13 1 13 2 0 11 -12 8 -10 10 10 11 l25
1 -25 8 c-14 4 -18 9 -10 9 13 1 13 2 0 11 -12 8 -10 10 10 11 l25 1 -25 8
c-14 4 -18 9 -10 9 13 1 13 2 0 11 -12 8 -10 10 10 11 l25 1 -25 8 c-14 4 -18
9 -10 9 13 1 13 2 0 11 -12 8 -10 10 10 11 l25 1 -25 8 -25 8 25 2 25 2 -25 8
-25 8 25 2 25 2 -25 8 -25 8 25 2 25 2 -25 8 -25 8 25 2 25 2 -25 8 -25 8 25
1 c20 1 22 3 10 11 -13 9 -13 10 0 11 8 0 4 5 -10 9 l-25 8 25 1 c20 1 22 3
10 11 -13 9 -13 10 0 11 8 0 4 5 -10 9 l-25 8 25 1 c20 1 22 3 10 11 -13 9
-13 10 0 11 8 0 4 5 -10 9 l-25 8 25 1 c20 1 22 3 10 11 -13 9 -13 10 0 11 8
0 4 5 -10 9 l-25 8 25 1 c20 1 22 3 10 11 -13 9 -13 10 0 11 8 0 4 5 -10 9
l-25 8 25 1 c20 1 22 3 10 11 -13 9 -13 10 0 10 13 0 13 1 0 10 -13 9 -13 10
0 10 13 0 13 1 0 10 -13 9 -13 10 0 11 8 0 4 5 -10 9 l-25 8 25 1 c20 1 22 3
10 11 -13 9 -13 10 0 10 13 0 13 1 0 10 -13 9 -13 10 0 10 13 0 13 1 0 10 -12
8 -10 10 10 11 l25 1 -25 8 c-14 4 -18 9 -10 9 13 1 13 3 1 10 -11 7 -9 10 10
14 l24 4 -24 2 -24 1 23 20 23 20 -23 0 -23 0 23 20 23 20 -23 0 -23 0 23 20
23 20 -23 0 -23 0 23 20 23 20 -24 1 -24 1 25 8 c14 4 18 9 10 9 -13 1 -13 2
0 11 12 8 10 10 -10 11 l-25 1 25 8 c14 4 18 9 10 9 -13 1 -13 2 0 11 13 9 13
10 0 10 -13 0 -13 1 0 10 13 9 13 10 0 10 -13 0 -13 1 0 10 13 9 13 10 0 10
-13 0 -13 1 0 10 13 9 13 10 0 10 -13 0 -13 1 0 10 13 9 13 10 0 10 -13 0 -13
1 0 10 13 9 13 10 0 11 -8 0 -4 5 10 9 l25 8 -25 1 c-20 1 -22 3 -10 11 13 9
13 10 0 11 -8 0 -4 5 10 9 l25 8 -25 1 c-20 1 -22 3 -10 11 13 9 13 10 0 11
-8 0 -4 5 10 9 l25 8 -25 1 c-20 1 -22 3 -10 11 13 9 13 10 0 11 -8 0 -4 5 10
9 l25 8 -25 1 c-20 1 -22 3 -10 11 13 9 13 10 0 11 -8 0 -4 5 10 9 l25 8 -25
1 c-20 1 -22 3 -10 11 13 9 13 10 0 11 -8 0 -4 5 10 9 l25 8 -25 2 -25 2 25 8
25 8 -25 2 -25 2 25 8 25 8 -25 2 -25 2 25 8 25 8 -25 2 -25 2 25 8 25 8 -25
2 -25 2 25 8 c16 5 -23 8 -102 9 l-128 1 0 -720z"/>
<path d="M27348 30123 c7 -3 16 -2 19 1 4 3 -2 6 -13 5 -11 0 -14 -3 -6 -6z"/>
<path d="M28428 29893 c7 -3 16 -2 19 1 4 3 -2 6 -13 5 -11 0 -14 -3 -6 -6z"/>
<path d="M28428 29813 c7 -3 16 -2 19 1 4 3 -2 6 -13 5 -11 0 -14 -3 -6 -6z"/>
<path d="M28428 29733 c7 -3 16 -2 19 1 4 3 -2 6 -13 5 -11 0 -14 -3 -6 -6z"/>
<path d="M23540 28995 c-620 -620 -722 -726 -711 -739 66 -79 600 -432 620
-410 11 11 822 1866 818 1870 -2 2 -329 -323 -727 -721z"/>
<path d="M16280 29525 c0 -3 14 -37 32 -77 70 -160 199 -324 337 -429 94 -71
267 -154 386 -185 491 -127 1027 117 1253 571 22 44 43 90 47 103 l6 22 -1030
0 c-567 0 -1031 -2 -1031 -5z"/>
<path d="M28240 27525 c-10 -13 -9 -15 11 -15 17 0 20 3 10 9 -11 7 -11 9 0
14 8 3 9 6 3 6 -6 1 -17 -6 -24 -14z"/>
<path d="M28080 27415 c-74 -51 -201 -130 -281 -176 l-145 -84 169 -385 169
-385 98 -62 99 -62 22 20 22 19 -23 0 -23 0 23 20 23 20 -23 0 -23 0 23 20 23
20 -23 0 -23 0 23 20 23 20 -24 1 -24 1 25 8 c14 4 18 9 10 9 -13 1 -13 2 0
11 12 8 10 10 -9 10 l-24 0 23 20 c15 13 18 20 9 20 -11 0 -11 2 1 10 13 9 13
10 0 10 -13 0 -13 2 -1 9 11 7 9 10 -10 14 l-24 4 25 2 c20 1 22 3 10 11 -13
9 -13 10 0 10 13 0 13 1 0 10 -13 9 -13 10 0 10 13 0 13 1 0 10 -12 8 -10 10
10 11 l25 1 -25 8 c-14 4 -18 9 -10 9 13 1 13 2 0 11 -12 8 -10 10 10 11 l25
1 -25 8 c-14 4 -18 9 -10 9 13 1 13 2 0 11 -12 8 -10 10 10 11 l25 1 -25 8
c-14 4 -18 9 -10 9 13 1 13 2 0 11 -12 8 -10 10 10 11 l25 1 -25 8 c-14 4 -18
9 -10 9 13 1 13 2 0 11 -12 8 -10 10 10 11 l25 1 -25 8 c-14 4 -18 9 -10 9 13
1 13 2 0 11 -12 8 -10 10 10 11 l25 1 -25 8 -25 8 25 2 25 2 -25 8 -25 8 25 2
25 2 -25 8 -25 8 25 2 25 2 -25 8 -25 8 25 2 25 2 -25 8 -25 8 25 1 c20 1 22
3 10 11 -13 9 -13 10 0 11 8 0 4 5 -10 9 l-25 8 25 2 25 2 -25 8 -25 8 25 2
25 2 -25 8 -25 8 25 1 c20 1 22 3 10 11 -13 9 -13 10 0 11 8 0 4 5 -10 9 l-25
8 25 1 c20 1 22 3 10 11 -13 9 -13 10 0 11 8 0 4 5 -10 9 l-25 8 25 1 c20 1
22 3 10 11 -13 9 -13 10 0 11 8 0 4 5 -10 9 l-25 8 25 1 c20 1 22 3 10 11 -13
9 -13 10 0 11 8 0 4 5 -10 9 l-25 8 25 1 c19 1 21 4 11 10 -11 7 -9 10 10 14
19 3 16 5 -11 7 -33 2 -33 3 -10 10 14 4 18 9 10 9 -13 1 -13 2 0 11 13 9 13
10 0 10 -13 0 -13 1 0 10 13 9 13 10 0 11 -8 0 -4 5 10 9 l25 8 -25 1 c-20 1
-22 3 -10 11 13 9 13 10 0 11 -8 0 -4 5 10 9 l25 8 -24 1 -24 1 23 20 23 20
-23 0 -23 0 23 20 23 20 -23 0 -23 0 23 20 23 20 -23 0 -23 0 23 20 23 20 -24
1 -24 1 25 8 c14 4 18 9 10 9 -13 1 -13 2 0 11 13 8 13 10 -2 10 -9 0 -22 2
-30 4 -7 2 -74 -38 -148 -89z"/>
<path d="M27108 26763 c7 -3 16 -2 19 1 4 3 -2 6 -13 5 -11 0 -14 -3 -6 -6z"/>
<path d="M28208 26253 c7 -3 16 -2 19 1 4 3 -2 6 -13 5 -11 0 -14 -3 -6 -6z"/>
<path d="M27028 25643 c7 -3 16 -2 19 1 4 3 -2 6 -13 5 -11 0 -14 -3 -6 -6z"/>
<path d="M27740 23239 c-131 -40 -511 -133 -650 -160 -63 -12 -119 -25 -123
-29 -11 -10 -24 36 208 -700 266 -845 393 -1251 520 -1655 239 -762 222 -713
251 -707 19 3 22 7 12 13 -10 7 -10 9 2 9 13 0 13 1 0 10 -13 9 -13 10 0 10
13 0 13 1 0 10 -13 9 -13 10 0 11 8 0 4 5 -10 9 l-25 8 25 1 c20 1 22 3 10 11
-13 9 -13 10 0 10 13 0 13 1 0 10 -13 9 -13 10 0 10 13 0 13 1 0 10 -12 8 -10
10 10 11 l25 1 -25 8 c-14 4 -18 9 -10 9 13 1 13 3 1 10 -11 7 -9 10 10 14
l24 4 -24 2 -24 1 23 20 23 20 -23 0 -23 0 23 20 23 20 -23 0 -23 0 23 20 23
20 -23 0 -23 0 23 20 23 20 -24 1 -24 1 25 8 c14 4 18 9 10 9 -13 1 -13 2 0
11 12 8 10 10 -9 10 l-24 0 23 20 c15 13 18 20 9 20 -11 0 -11 2 1 10 13 9 13
10 0 10 -13 0 -13 1 0 10 13 9 13 10 0 10 -13 0 -13 1 0 10 13 9 13 10 0 10
-13 0 -13 1 0 10 13 9 13 10 0 10 -13 0 -13 1 0 10 13 9 13 10 0 11 -8 0 -4 5
10 9 l25 8 -25 1 c-20 1 -22 3 -10 11 13 9 13 10 0 11 -8 0 -4 5 10 9 l25 8
-25 1 c-20 1 -22 3 -10 11 13 9 13 10 0 11 -8 0 -4 5 10 9 l25 8 -25 1 c-20 1
-22 3 -10 11 13 9 13 10 0 11 -8 0 -4 5 10 9 l25 8 -25 1 c-20 1 -22 3 -10 11
13 9 13 10 0 11 -8 0 -4 5 10 9 l25 8 -25 1 c-18 1 -21 4 -11 10 11 7 11 9 0
14 -8 3 -3 6 11 7 l25 2 -25 8 -25 8 25 2 25 2 -25 8 -25 8 25 2 25 2 -25 8
-25 8 25 2 25 2 -25 8 -25 8 25 2 25 2 -25 8 -25 8 25 1 c20 1 22 3 10 11 -13
9 -13 10 0 11 8 0 4 5 -10 9 l-25 8 25 1 c20 1 22 3 10 11 -13 9 -13 10 0 11
8 0 4 5 -10 9 l-25 8 25 1 c20 1 22 3 10 11 -13 9 -13 10 0 11 8 0 4 5 -10 9
l-25 8 25 1 c20 1 22 3 10 11 -13 9 -13 10 0 11 8 0 4 5 -10 9 l-25 8 25 1
c20 1 22 3 10 11 -13 9 -13 10 0 11 8 0 4 5 -10 9 l-25 8 25 1 c20 1 22 3 10
11 -13 9 -13 10 0 10 13 0 13 1 0 10 -13 9 -13 10 0 10 13 0 13 2 1 9 -11 7
-9 10 10 14 19 3 16 5 -11 7 -33 2 -33 3 -10 10 14 4 18 9 10 9 -13 1 -13 2 0
11 13 9 13 10 0 10 -13 0 -13 1 0 10 13 9 13 10 0 11 -8 0 -4 5 10 9 l25 8
-25 1 c-20 1 -22 3 -10 11 13 9 13 10 0 11 -8 0 -4 5 10 9 l25 8 -24 1 -24 1
23 20 23 20 -23 0 -23 0 23 20 23 20 -23 0 -23 0 23 20 23 20 -23 0 -23 0 23
20 23 20 -24 1 -24 1 25 8 c14 4 18 9 10 9 -13 1 -13 2 0 11 12 8 10 10 -10
11 l-25 1 25 8 c14 4 18 9 10 9 -13 1 -13 2 0 11 13 9 13 10 0 10 -13 0 -13 1
0 10 13 9 13 10 0 11 -8 0 -4 5 10 9 23 7 23 8 -10 10 -27 2 -30 4 -11 7 19 4
21 7 10 14 -10 6 -8 9 11 10 l25 1 -25 8 c-14 4 -18 9 -10 9 13 1 13 2 0 11
-12 8 -10 10 10 11 l25 1 -25 8 c-14 4 -18 9 -10 9 13 1 13 2 0 11 -12 8 -10
10 10 11 l25 1 -25 8 c-14 4 -18 9 -10 9 13 1 13 2 0 11 -12 8 -10 10 10 11
l25 1 -25 8 c-14 4 -18 9 -10 9 13 1 13 2 0 11 -12 8 -10 10 10 11 l25 1 -25
8 -25 8 25 2 25 2 -25 8 -25 8 25 2 25 2 -25 8 c-14 4 -18 9 -10 9 13 1 13 2
0 11 -12 8 -10 10 10 11 l25 1 -25 8 -25 8 25 2 25 2 -25 8 -25 8 25 2 25 2
-25 8 -25 8 25 2 25 2 -25 8 -25 8 25 2 25 2 -25 8 -25 8 25 1 c20 1 22 3 10
11 -13 9 -13 10 0 11 8 0 4 5 -10 9 l-25 8 25 1 c20 1 22 3 10 11 -13 9 -13
10 0 11 8 0 4 5 -10 9 l-25 8 25 1 c20 1 22 3 10 11 -13 9 -13 10 0 11 8 0 4
5 -10 9 l-25 8 25 1 c20 1 22 3 10 11 -13 9 -13 10 0 11 8 0 4 5 -10 9 l-25 8
25 1 c20 1 22 3 10 11 -13 9 -13 10 0 11 8 0 4 5 -10 9 l-25 8 25 1 c20 1 22
3 10 11 -13 9 -13 10 0 10 13 0 13 1 0 10 -13 9 -13 10 0 10 13 0 13 2 1 9
-11 7 -9 10 10 14 l24 4 -25 2 c-20 1 -22 3 -10 11 13 9 13 10 0 10 -13 0 -13
1 0 10 12 8 12 10 1 10 -9 0 -6 7 9 20 l23 20 -24 0 c-19 0 -21 2 -9 10 13 9
13 10 0 11 -8 0 -4 5 10 9 l25 8 -24 1 -24 1 23 20 23 20 -23 0 -23 0 23 20
23 20 -23 0 -23 0 23 20 23 20 -23 0 -23 0 23 20 23 20 -24 1 -24 1 25 8 c14
4 18 9 10 9 -13 1 -13 2 0 11 12 8 10 10 -10 11 l-25 1 25 8 c14 4 18 9 10 9
-13 1 -13 2 0 11 13 9 13 10 0 10 -13 0 -13 1 0 10 13 9 13 10 0 11 -8 0 -4 5
10 9 l25 8 -25 1 c-20 1 -22 3 -10 11 13 9 13 10 0 11 -8 0 -4 5 10 9 l25 8
-25 1 c-20 1 -22 3 -10 11 13 9 13 10 0 11 -8 0 -4 5 10 9 l25 8 -25 1 c-20 1
-22 3 -10 11 13 9 13 10 0 11 -8 0 -4 5 10 9 l25 8 -25 1 c-20 1 -22 3 -10 11
13 9 13 10 0 11 -8 0 -4 5 10 9 l25 8 -25 1 c-20 1 -22 3 -10 11 13 9 13 10 0
11 -8 0 -4 5 10 9 l25 8 -25 2 -25 2 25 8 25 8 -25 2 -25 2 25 8 25 8 -25 1
c-20 1 -22 3 -10 11 13 9 13 10 0 11 -10 0 -8 3 5 9 l20 9 -20 0 c-17 1 -17 3
-5 11 12 8 12 10 1 10 -8 0 -12 3 -8 6 7 8 -200 424 -211 423 -4 0 -50 -14
-102 -30z"/>
<path d="M28108 21733 c7 -3 16 -2 19 1 4 3 -2 6 -13 5 -11 0 -14 -3 -6 -6z"/>
<path d="M28108 21653 c7 -3 16 -2 19 1 4 3 -2 6 -13 5 -11 0 -14 -3 -6 -6z"/>
<path d="M26538 19523 c6 -2 18 -2 25 0 6 3 1 5 -13 5 -14 0 -19 -2 -12 -5z"/>
<path d="M26938 17276 c-70 -25 -127 -66 -153 -110 -56 -95 -52 -231 11 -344
l35 -64 -25 -51 c-49 -100 -43 -220 14 -310 l29 -46 -21 -58 c-15 -42 -20 -84
-21 -153 0 -88 3 -102 33 -165 69 -145 191 -223 302 -194 51 13 61 34 38 80
-82 159 -54 526 53 719 74 133 162 222 272 279 115 58 217 72 335 48 l55 -12
0 -530 0 -530 -24 -53 c-28 -63 -95 -126 -175 -165 l-58 -29 69 -39 c37 -22
88 -59 112 -82 80 -77 76 -44 79 -669 l3 -558 -30 -43 c-70 -102 -239 -157
-346 -113 -32 14 -36 13 -45 -4 -17 -32 -11 -92 13 -127 14 -22 47 -46 96 -71
75 -37 76 -37 200 -37 118 0 130 2 189 29 63 29 63 29 100 11 128 -61 298 -61
424 1 37 17 39 17 75 0 96 -47 251 -60 349 -31 132 39 216 147 174 225 -10 18
-12 18 -48 3 -52 -22 -173 -13 -233 17 -51 26 -105 74 -125 112 -21 41 -21
1082 1 1155 19 65 78 131 152 171 32 17 64 35 71 40 9 6 -6 20 -53 47 -82 48
-160 129 -174 181 -7 26 -11 217 -11 562 l0 522 24 10 c46 17 143 22 217 11
117 -18 188 -57 289 -159 121 -122 173 -222 210 -402 37 -182 25 -397 -27
-497 -14 -26 -14 -34 -4 -47 19 -23 80 -36 128 -27 187 36 307 304 231 517
l-22 61 21 29 c39 55 55 107 55 182 0 61 -5 83 -29 132 l-29 59 28 42 c77 114
78 277 3 380 -59 82 -196 130 -277 96 -36 -15 -36 -16 -26 -50 14 -44 3 -104
-22 -117 -30 -16 -59 -12 -204 25 -317 82 -524 86 -668 14 -37 -19 -39 -19
-75 0 -134 67 -291 68 -422 2 l-41 -21 -48 20 c-166 70 -344 66 -660 -15 -75
-19 -152 -35 -169 -35 -47 0 -67 34 -61 106 5 52 3 56 -23 70 -34 17 -92 17
-141 0z m1225 -766 c62 -73 67 -148 67 -955 -1 -913 -8 -998 -89 -1082 l-36
-37 -3 84 c-1 47 -6 272 -11 500 -10 492 -8 484 -106 537 l-59 31 48 23 c72
33 94 74 106 195 5 54 10 205 10 335 0 130 3 277 6 327 8 101 14 105 67 42z"/>
<path d="M25073 17254 c8 -39 -23 -107 -59 -131 -23 -15 -47 -18 -134 -17 -91
1 -119 6 -215 37 -162 53 -243 67 -411 74 -159 6 -266 -4 -384 -37 -216 -59
-405 -188 -519 -353 -42 -62 -105 -198 -120 -260 -19 -78 -24 -225 -12 -324
29 -240 144 -430 423 -705 l160 -157 -11 -73 c-6 -40 -14 -86 -17 -101 l-7
-28 64 35 c111 61 216 64 326 10 136 -66 368 -244 465 -357 83 -97 109 -157
116 -268 8 -150 -31 -264 -124 -360 -42 -43 -170 -112 -239 -128 -70 -17 -237
-15 -320 4 -227 53 -426 238 -488 455 -23 81 -40 236 -33 302 9 78 32 150 57
182 17 22 19 29 8 42 -42 51 -134 59 -198 16 -57 -38 -123 -130 -151 -209 -28
-80 -31 -207 -5 -267 l16 -39 -31 -41 c-59 -79 -90 -155 -90 -225 0 -85 16
-134 60 -184 21 -23 40 -51 44 -63 9 -30 -11 -161 -31 -194 -15 -26 -15 -30 0
-53 54 -83 225 -50 376 71 l63 51 37 -15 c20 -9 63 -28 96 -41 255 -107 662
-116 956 -22 175 56 388 196 492 324 220 271 268 655 123 970 -70 150 -228
342 -450 545 -81 74 -152 142 -157 151 -14 27 -11 76 10 162 10 42 17 77 14
77 -2 0 -34 -15 -71 -34 -37 -18 -98 -39 -135 -45 -64 -11 -72 -10 -120 12
-106 49 -330 218 -408 309 -59 68 -77 104 -87 170 -23 155 57 297 206 366 75
35 224 42 335 18 308 -69 501 -355 432 -641 -8 -33 -14 -63 -15 -67 0 -13 65
-28 121 -28 49 0 63 4 100 33 23 17 53 52 66 77 21 39 24 56 21 130 -3 81 -1
88 28 135 31 49 54 127 54 184 0 44 -29 128 -54 158 -24 27 -24 27 -4 53 82
112 2 323 -128 338 l-47 5 6 -29z m-1560 -762 c15 -178 132 -385 334 -587 117
-118 228 -205 513 -400 135 -93 279 -194 321 -226 161 -122 304 -288 345 -400
24 -66 31 -245 11 -303 -17 -48 -60 -111 -86 -126 -14 -7 -16 3 -13 88 5 130
-12 220 -58 317 -51 105 -131 198 -260 302 -132 106 -349 251 -412 275 -63 24
-141 23 -197 -2 -40 -18 -43 -19 -36 -2 22 56 28 113 15 136 -7 14 -69 75
-137 137 -199 179 -334 345 -389 479 -42 104 -52 253 -21 315 12 24 48 65 57
65 4 0 10 -30 13 -68z"/>
<path d="M40928 17263 l-36 -4 5 -54 c4 -41 2 -61 -11 -80 -22 -34 -62 -33
-196 4 -211 59 -259 66 -485 66 -220 0 -306 -11 -459 -56 l-69 -21 -50 27
c-128 70 -292 74 -420 9 -49 -24 -49 -24 -81 -5 -186 114 -516 23 -516 -143 0
-64 9 -71 64 -52 119 41 249 -5 317 -112 l30 -47 -3 -480 -3 -480 -28 -57
c-33 -67 -92 -123 -172 -162 l-57 -28 63 -36 c81 -48 152 -112 175 -159 18
-36 19 -74 22 -595 2 -475 1 -561 -12 -586 -25 -48 -94 -110 -143 -126 -58
-20 -153 -21 -198 -2 -32 14 -36 13 -45 -4 -14 -27 -12 -76 4 -108 21 -40 54
-68 121 -99 55 -26 69 -28 180 -28 110 0 124 2 175 27 l56 27 64 -27 c59 -25
76 -27 190 -27 121 0 127 1 197 34 l71 33 49 -16 c113 -37 191 -47 398 -53
251 -6 377 11 571 77 119 41 219 58 268 46 40 -10 58 -47 57 -118 0 -39 4 -65
12 -70 22 -14 156 -9 195 8 68 28 128 101 146 179 15 59 7 184 -13 229 l-19
44 29 35 c45 54 69 115 69 175 0 67 -20 110 -77 167 -43 42 -45 46 -34 76 18
51 13 82 -20 133 -31 46 -32 49 -25 128 6 70 4 86 -15 125 -30 63 -84 96 -157
97 -45 1 -64 -4 -90 -23 -21 -14 -31 -29 -28 -38 14 -37 18 -158 7 -250 -17
-144 -54 -271 -116 -401 -46 -95 -66 -125 -122 -181 -114 -112 -220 -150 -438
-158 -232 -8 -363 33 -469 148 l-56 60 0 544 0 543 53 19 c110 38 340 18 409
-37 69 -54 98 -222 59 -339 -16 -47 -19 -67 -11 -75 6 -6 45 -11 90 -11 71 0
82 3 122 30 65 46 101 125 101 218 -1 39 -6 85 -12 101 -9 23 -9 32 3 45 8 9
28 43 43 76 24 52 28 72 28 150 -1 94 -18 153 -63 210 -18 22 -18 28 -5 77 34
131 -36 243 -167 268 -55 11 -150 -2 -150 -19 0 -5 8 -23 17 -42 23 -45 28
-123 13 -194 -23 -109 -90 -148 -285 -164 -102 -9 -150 -3 -210 26 l-35 17 0
419 0 419 32 60 c101 190 365 287 617 227 198 -48 362 -226 417 -454 21 -86
25 -289 6 -322 -12 -21 -10 -23 40 -38 72 -21 146 -19 184 4 39 24 82 79 100
128 16 46 18 144 3 197 -9 33 -8 41 9 60 46 50 57 87 57 191 0 82 -5 109 -23
149 -21 46 -21 51 -7 93 20 58 19 183 -1 231 -18 44 -58 88 -98 109 -29 15
-143 24 -208 16z m-1651 -745 c67 -72 73 -144 73 -963 -1 -911 -8 -1001 -88
-1082 l-37 -38 -11 495 c-7 301 -16 511 -23 536 -13 47 -28 63 -95 96 l-49 25
47 22 c53 26 81 58 96 110 9 28 20 336 30 819 0 18 3 21 18 13 9 -5 27 -20 39
-33z"/>
<path d="M10110 17205 c-634 -93 -1067 -545 -1181 -1230 -35 -213 -75 -299
-169 -357 l-49 -30 58 -54 c92 -84 124 -169 161 -414 25 -168 69 -345 116
-464 231 -582 724 -885 1357 -835 489 38 860 321 942 715 37 180 -3 322 -105
374 -44 23 -156 28 -193 9 -53 -27 -56 -36 -33 -82 28 -58 35 -208 12 -298
-26 -104 -82 -207 -148 -271 -69 -69 -190 -130 -293 -149 -101 -19 -256 -17
-341 5 -159 39 -294 159 -346 306 -38 106 -43 158 -43 510 0 380 3 406 64 502
26 41 94 103 146 134 16 9 13 13 -26 36 -66 39 -133 115 -160 184 -23 58 -24
66 -24 364 0 347 10 419 72 547 40 83 121 167 199 205 163 83 418 68 575 -32
108 -70 176 -166 179 -255 4 -95 2 -104 -46 -155 -65 -69 -134 -101 -218 -101
-62 0 -66 -2 -66 -23 0 -33 38 -85 88 -120 37 -26 54 -31 118 -34 69 -4 75 -6
80 -29 9 -36 -3 -108 -26 -153 -25 -50 -17 -55 72 -47 107 10 206 72 284 181
18 25 23 27 42 17 30 -16 121 -14 173 4 44 16 69 33 102 72 18 20 17 21 -17
42 -45 28 -77 94 -112 231 -99 389 -369 627 -787 695 -110 18 -337 18 -457 0z
m-702 -689 c2 -22 -10 -81 -27 -139 -32 -106 -60 -246 -83 -407 -9 -64 -13
-203 -13 -425 0 -466 24 -665 110 -911 25 -71 45 -134 45 -140 0 -7 -8 -22
-19 -35 l-19 -23 -48 74 c-57 88 -95 177 -129 303 -40 152 -85 399 -111 620
-7 66 -29 99 -85 127 -21 11 -39 22 -39 24 0 2 20 16 45 31 25 14 51 36 59 48
8 12 24 88 36 169 37 262 105 504 171 612 75 123 101 141 107 72z"/>
<path d="M14910 17206 c-85 -13 -223 -46 -275 -66 -22 -8 -33 -7 -59 9 -107
67 -298 66 -428 0 -36 -19 -38 -19 -70 0 -105 61 -267 67 -381 13 -107 -49
-151 -117 -128 -193 12 -38 12 -39 36 -23 70 46 216 21 292 -48 77 -72 73 -41
73 -572 0 -454 -1 -478 -20 -530 -26 -69 -80 -124 -168 -173 l-70 -39 56 -29
c87 -46 177 -135 191 -189 7 -31 11 -222 11 -593 l0 -548 -38 -49 c-51 -68
-114 -100 -208 -104 -53 -3 -82 0 -105 12 -42 21 -54 9 -53 -54 1 -60 21 -92
82 -131 75 -47 139 -62 256 -57 86 4 109 8 155 32 l54 28 61 -29 c57 -26 70
-28 186 -28 114 0 131 2 190 27 l64 27 56 -27 c51 -25 65 -27 180 -27 119 0
127 1 172 28 78 45 115 130 88 201 -9 25 -10 25 -44 11 -46 -19 -137 -19 -184
1 -47 19 -88 58 -113 106 -18 36 -19 62 -17 555 l3 518 150 3 c85 2 176 -2
210 -8 164 -32 304 -172 359 -362 30 -100 37 -169 46 -438 6 -190 13 -282 24
-325 41 -149 113 -249 203 -279 58 -20 153 -21 197 -2 29 12 40 12 73 1 64
-23 165 -19 238 10 l64 26 43 -22 c32 -17 66 -24 129 -27 98 -5 138 5 199 49
55 40 80 83 80 139 0 66 -8 74 -55 54 -55 -23 -156 -16 -215 15 -86 44 -148
122 -180 226 -7 23 -15 144 -20 285 -8 264 -16 312 -70 425 -39 83 -117 181
-184 233 -51 39 -164 100 -218 117 -20 6 -15 9 32 24 183 58 347 200 416 358
9 21 33 88 54 150 21 62 52 135 70 163 31 48 114 130 131 130 20 0 6 18 -30
38 -43 24 -102 86 -124 129 -8 15 -27 73 -41 128 -101 381 -373 611 -816 690
-128 23 -492 29 -610 11z m393 -287 c106 -36 167 -93 210 -200 20 -51 21 -75
25 -411 5 -418 -2 -501 -51 -597 -35 -70 -95 -121 -165 -141 -62 -18 -261 -24
-350 -11 -144 21 -193 56 -212 148 -8 35 -10 208 -8 520 4 417 6 473 21 514
50 130 177 197 375 198 69 1 109 -4 155 -20z m446 -165 c45 -51 77 -138 112
-299 30 -144 48 -179 104 -207 l46 -24 -38 -24 c-53 -35 -78 -88 -108 -229
-30 -143 -58 -223 -92 -269 -24 -32 -70 -68 -77 -61 -2 2 2 33 10 69 18 87 34
346 34 556 0 240 -14 364 -56 512 -11 38 21 26 65 -24z m-1526 -232 c54 -55
66 -108 77 -322 12 -243 12 -978 0 -1300 -12 -310 -29 -386 -97 -440 l-28 -22
-6 439 c-4 241 -10 473 -14 516 -9 97 -31 132 -105 169 l-54 27 29 11 c44 17
93 57 110 90 18 35 35 352 35 668 0 111 4 202 8 202 4 0 25 -17 45 -38z m1512
-1501 c48 -21 90 -68 119 -131 18 -40 21 -73 27 -315 7 -282 13 -321 60 -403
10 -18 19 -36 19 -39 0 -3 -25 -3 -55 -1 -73 6 -108 39 -137 128 -18 57 -22
99 -28 340 -4 151 -12 290 -18 308 -6 19 -23 53 -37 77 -14 24 -25 46 -25 49
0 11 36 5 75 -13z"/>
<path d="M18215 17205 c-148 -20 -280 -61 -420 -129 -258 -125 -439 -300 -585
-565 -90 -163 -141 -317 -185 -562 -37 -206 -74 -278 -172 -336 l-43 -25 55
-49 c96 -88 123 -153 161 -389 48 -291 95 -455 185 -635 184 -368 517 -615
917 -681 127 -21 386 -21 504 0 227 41 435 143 581 285 78 75 119 132 171 238
116 232 95 486 -44 555 -48 23 -154 23 -200 0 -39 -19 -41 -32 -15 -102 21
-57 21 -203 0 -285 -52 -202 -204 -351 -410 -400 -98 -24 -291 -24 -369 -1
-204 61 -329 195 -371 399 -13 61 -15 140 -13 438 3 363 3 364 28 423 28 64
111 156 169 185 l35 19 -42 21 c-90 46 -155 126 -181 222 -19 70 -10 685 12
757 76 255 235 375 497 375 123 0 180 -12 275 -58 145 -69 227 -181 228 -307
1 -99 -40 -154 -150 -205 -50 -23 -138 -33 -162 -19 -5 4 -12 -3 -16 -14 -10
-32 26 -91 81 -130 44 -32 56 -35 126 -39 l78 -3 0 -57 c0 -38 -8 -72 -24
-108 -13 -28 -22 -54 -18 -57 11 -12 99 -6 152 10 83 25 167 90 220 172 13 21
19 22 43 13 79 -30 200 -2 258 60 l29 31 -44 39 c-48 43 -59 67 -102 224 -48
180 -120 311 -227 419 -145 144 -329 234 -560 271 -109 18 -325 18 -452 0z
m-705 -664 c7 -14 3 -43 -15 -113 -90 -331 -110 -494 -109 -888 1 -460 28
-678 114 -910 44 -121 48 -150 24 -175 -16 -15 -19 -15 -40 12 -39 46 -110
192 -138 280 -42 136 -91 391 -126 663 -13 94 -27 118 -92 151 -21 11 -38 21
-38 23 0 2 20 16 45 31 25 14 52 36 59 48 8 12 26 97 41 188 30 194 73 378
111 475 29 74 127 234 143 234 6 0 15 -9 21 -19z"/>
<path d="M31415 17205 c-49 -8 -130 -27 -180 -41 -49 -15 -97 -27 -105 -26 -8
0 -44 12 -80 27 -116 49 -275 44 -387 -13 l-37 -19 -65 31 c-61 29 -74 31
-176 31 -100 0 -116 -3 -170 -28 -68 -32 -100 -59 -122 -101 -16 -32 -20 -103
-6 -117 5 -5 30 -2 57 7 104 36 243 -10 304 -100 l32 -48 0 -488 0 -487 -31
-61 c-34 -68 -73 -105 -161 -152 -32 -17 -58 -33 -58 -35 0 -2 29 -20 65 -39
85 -48 160 -122 174 -172 7 -26 11 -227 11 -596 l0 -556 -33 -44 c-38 -50 -85
-84 -136 -98 -55 -15 -148 -12 -183 6 -34 17 -46 9 -49 -31 -4 -72 18 -114 81
-156 64 -43 130 -59 239 -59 86 0 103 3 160 31 l65 30 60 -28 c57 -26 70 -28
191 -28 122 0 134 2 192 29 58 27 64 28 86 13 51 -33 136 -49 236 -45 115 5
165 27 212 91 28 38 30 48 27 99 -2 32 -7 60 -10 63 -3 3 -21 -2 -41 -10 -20
-8 -63 -15 -95 -15 -74 0 -135 30 -179 88 l-33 44 0 534 0 534 163 0 c171 0
233 -10 309 -50 98 -51 175 -139 222 -255 46 -113 58 -203 66 -480 6 -188 12
-281 25 -335 47 -203 151 -310 303 -310 34 0 78 6 97 14 31 13 40 13 81 -1 61
-21 182 -14 246 14 l47 21 58 -24 c82 -33 198 -33 268 0 95 45 145 126 124
201 -11 39 -14 40 -49 20 -37 -21 -130 -18 -197 6 -41 15 -73 37 -109 74 -90
91 -114 195 -114 490 0 102 -6 185 -15 230 -19 90 -80 214 -142 290 -59 72
-173 156 -251 185 -31 11 -64 23 -72 26 -9 4 8 13 40 23 240 75 386 229 468
491 48 156 95 232 178 292 l45 32 -28 15 c-99 51 -143 114 -182 257 -50 184
-106 289 -215 402 -146 153 -349 252 -611 299 -120 21 -498 26 -610 8z m428
-294 c77 -30 147 -99 178 -176 23 -59 24 -66 27 -444 2 -242 -1 -410 -8 -454
-21 -137 -86 -225 -195 -262 -31 -10 -96 -19 -170 -22 -204 -9 -335 24 -382
96 l-23 34 0 503 c0 478 1 506 20 556 34 92 127 164 243 188 77 16 245 6 310
-19z m393 -127 c53 -35 91 -124 135 -318 38 -167 49 -189 110 -219 l48 -25
-43 -27 c-57 -36 -79 -82 -111 -235 -30 -141 -53 -206 -90 -260 -22 -32 -71
-67 -80 -58 -2 2 3 27 10 55 22 83 35 296 35 553 0 278 -16 432 -55 533 -9 22
8 22 41 1z m-1499 -264 c50 -50 60 -83 74 -260 15 -179 6 -1504 -11 -1608 -15
-95 -39 -151 -81 -187 l-34 -28 -6 479 c-4 263 -11 501 -17 527 -11 56 -40 90
-102 122 l-44 22 34 18 c45 22 78 53 97 88 20 40 32 261 33 595 0 149 4 272 8
272 4 0 26 -18 49 -40z m1509 -1499 c22 -10 57 -38 77 -62 61 -71 68 -110 76
-414 l6 -270 33 -69 c17 -37 32 -70 32 -72 0 -2 -18 -4 -40 -4 -54 0 -93 21
-120 65 -44 71 -52 126 -59 415 -8 289 -13 323 -61 390 -11 15 -20 31 -20 34
0 11 35 5 76 -13z"/>
<path d="M36677 17204 c-43 -8 -123 -29 -177 -48 l-99 -33 -40 23 c-122 69
-301 70 -433 3 l-37 -19 -67 32 c-117 55 -254 50 -374 -14 -88 -45 -135 -139
-97 -192 12 -16 15 -16 52 0 30 12 55 15 104 10 106 -11 164 -45 218 -129 l24
-38 -3 -487 -3 -487 -23 -47 c-30 -59 -95 -120 -167 -155 -30 -15 -55 -30 -55
-33 0 -3 22 -17 48 -31 77 -43 150 -106 174 -152 l23 -42 3 -563 3 -564 -26
-43 c-32 -55 -80 -92 -141 -111 -61 -18 -145 -18 -189 0 -32 14 -36 13 -45 -4
-25 -46 -1 -123 51 -163 75 -57 124 -71 254 -71 111 -1 124 1 181 27 61 28 62
28 95 11 119 -61 317 -59 427 6 l34 20 86 -29 c146 -50 231 -63 402 -63 226
-1 369 21 585 88 367 115 634 351 745 659 48 134 108 216 199 276 l24 15 -51
37 c-68 49 -114 114 -153 217 -68 181 -140 291 -247 376 -66 53 -111 77 -206
114 l-70 27 65 34 c79 41 172 133 221 217 20 35 53 112 73 171 42 122 79 179
165 250 34 28 57 51 52 51 -5 0 -35 19 -66 42 -65 48 -102 103 -142 208 -56
150 -133 252 -265 350 -152 113 -350 196 -575 240 -144 29 -441 36 -557 14z
m406 -308 c81 -37 155 -104 187 -166 21 -41 21 -51 18 -398 -3 -316 -6 -363
-22 -407 -27 -73 -80 -133 -145 -164 -55 -26 -59 -26 -324 -29 l-268 -3 3 478
3 478 28 57 c86 174 326 245 520 154z m366 -20 c72 -38 130 -143 164 -299 31
-140 50 -175 111 -205 l50 -25 -43 -20 c-57 -27 -86 -74 -106 -175 -37 -186
-106 -313 -181 -336 l-21 -6 19 71 c24 95 38 283 38 498 0 195 -18 355 -49
445 -27 78 -28 75 18 52z m-1441 -360 c29 -31 43 -58 52 -97 27 -121 37 -835
20 -1444 -8 -294 -11 -338 -30 -400 -16 -50 -32 -79 -59 -105 l-36 -35 -7 451
c-7 463 -15 577 -42 620 -9 13 -42 37 -74 53 l-57 29 29 11 c52 20 88 53 108
98 17 38 21 81 28 306 5 144 10 328 10 410 0 81 4 147 9 147 5 0 27 -20 49
-44z m1133 -1088 c64 -29 132 -86 164 -138 47 -75 50 -110 50 -520 l0 -385
-26 -50 c-15 -27 -53 -75 -86 -106 -97 -93 -191 -130 -326 -130 -132 0 -229
40 -305 126 -78 89 -76 72 -80 688 l-3 548 278 -3 c276 -3 278 -4 334 -30z
m420 -71 c45 -44 74 -114 112 -265 18 -71 41 -141 50 -155 10 -15 40 -40 68
-55 l50 -29 -30 -13 c-37 -15 -80 -57 -93 -90 -5 -14 -23 -89 -39 -168 -32
-155 -85 -288 -133 -331 -14 -14 -28 -23 -30 -20 -2 2 0 24 5 49 17 91 31 448
24 660 -7 237 -18 358 -39 418 -13 37 -13 39 4 35 10 -3 33 -19 51 -36z"/>
<path d="M11830 17186 c-133 -37 -211 -120 -193 -207 8 -39 12 -41 64 -22 86
30 218 -3 280 -69 63 -68 60 -42 57 -581 l-3 -492 -30 -54 c-34 -61 -73 -97
-157 -141 -32 -17 -58 -33 -58 -35 0 -2 26 -18 59 -35 81 -43 166 -127 180
-176 7 -26 11 -226 11 -592 l0 -552 -24 -39 c-55 -87 -142 -127 -258 -119 -38
3 -75 11 -81 17 -18 18 -25 13 -36 -22 -20 -61 12 -129 81 -170 114 -66 288
-77 404 -23 l62 28 38 -20 c104 -52 281 -56 393 -8 l64 27 61 -27 c50 -23 78
-29 161 -32 108 -4 174 12 246 61 66 45 97 124 69 177 -10 18 -12 18 -48 3
-26 -11 -57 -14 -108 -11 -98 7 -150 34 -203 105 l-42 57 3 555 3 556 27 56
c34 69 54 87 152 143 l77 44 -63 33 c-74 40 -171 132 -183 174 -4 17 -10 248
-12 515 l-4 486 33 49 c49 73 100 105 191 118 65 9 81 8 122 -7 56 -22 65 -15
65 49 0 110 -140 193 -328 194 -63 1 -84 -4 -149 -34 l-75 -35 -36 19 c-132
67 -292 67 -425 -1 -38 -19 -38 -19 -70 1 -79 48 -219 64 -317 37z m465 -663
c50 -51 64 -110 77 -313 13 -211 4 -1428 -12 -1540 -15 -111 -36 -164 -78
-201 l-37 -33 -6 455 c-3 250 -10 482 -14 517 -10 81 -36 119 -105 154 l-54
27 29 11 c49 19 96 60 112 99 18 43 32 313 33 639 0 133 4 222 10 222 5 0 25
-16 45 -37z"/>
<path d="M19890 17186 c-63 -18 -120 -49 -152 -83 -45 -48 -61 -112 -35 -147
12 -16 15 -16 52 0 30 12 56 15 102 11 103 -10 154 -39 214 -121 l29 -39 0
-457 c0 -269 -4 -479 -10 -511 -17 -87 -66 -151 -160 -205 -44 -26 -80 -48
-80 -49 0 -2 26 -18 57 -35 81 -46 141 -98 166 -145 21 -39 22 -55 28 -450 7
-432 9 -450 58 -574 141 -351 567 -561 1141 -563 412 -2 727 124 1072 428 66
58 136 115 156 127 l35 21 -41 35 c-22 20 -56 58 -76 84 l-36 49 0 390 c0 271
4 403 12 430 15 51 84 113 184 165 l76 40 -83 44 c-99 52 -173 120 -182 168
-4 18 -7 260 -7 536 l0 503 44 45 c24 25 58 53 75 62 50 25 155 30 229 11 35
-9 68 -14 73 -11 14 9 22 72 14 113 -9 50 -76 114 -138 131 -62 18 -140 10
-206 -20 l-54 -24 -50 24 c-76 38 -156 40 -239 7 l-65 -26 -49 22 c-75 33
-186 37 -252 8 -90 -39 -134 -110 -118 -195 4 -19 11 -37 15 -40 5 -3 38 2 73
11 70 18 164 14 220 -9 18 -8 55 -35 81 -61 l47 -48 0 -508 c0 -563 2 -545
-67 -621 -20 -22 -70 -59 -111 -81 l-74 -41 67 -37 c89 -49 154 -105 171 -146
20 -49 20 -838 0 -905 -22 -73 -51 -122 -107 -183 -110 -121 -261 -193 -440
-211 -294 -29 -581 168 -650 445 -11 42 -14 146 -14 425 l0 370 28 57 c32 65
73 103 165 151 l65 34 -64 34 c-75 40 -172 132 -184 174 -4 17 -10 247 -12
512 -4 467 -4 482 16 521 23 45 80 99 126 118 57 23 155 28 199 10 50 -21 66
-9 66 49 0 59 -33 103 -105 142 -120 64 -275 70 -383 15 l-63 -32 -37 19
c-132 67 -292 67 -424 0 l-37 -19 -68 32 c-57 27 -81 32 -153 35 -49 1 -104
-3 -130 -11z m464 -665 c54 -55 65 -107 78 -371 11 -240 3 -1560 -10 -1660
l-8 -55 -41 42 c-29 29 -45 56 -53 90 -6 27 -15 210 -20 428 -5 209 -13 403
-18 432 -12 70 -33 98 -99 131 l-56 29 47 22 c65 32 95 76 107 153 5 35 12
228 16 431 3 202 9 367 13 367 3 0 23 -18 44 -39z"/>
<path d="M33610 17186 c-63 -18 -120 -49 -152 -83 -45 -48 -61 -112 -35 -147
12 -16 15 -16 52 0 30 12 56 15 102 11 103 -10 154 -39 214 -121 l29 -39 0
-457 c0 -269 -4 -479 -10 -511 -17 -87 -66 -151 -160 -205 -44 -26 -80 -48
-80 -49 0 -2 26 -18 57 -36 90 -50 149 -105 172 -159 20 -47 21 -63 21 -600 0
-528 -1 -552 -20 -589 -53 -104 -223 -163 -335 -117 -32 14 -36 13 -45 -4 -25
-46 -1 -123 51 -163 75 -57 124 -71 254 -71 111 -1 124 1 181 27 61 28 62 28
95 11 117 -60 294 -59 421 1 37 18 37 18 100 -10 80 -37 215 -46 299 -22 65
19 142 66 164 101 22 33 30 98 16 124 -10 20 -13 20 -46 6 -44 -18 -128 -18
-189 0 -61 19 -109 56 -141 111 l-26 44 3 553 3 553 28 57 c32 65 73 103 165
151 l65 34 -64 34 c-75 40 -172 132 -184 174 -4 17 -10 247 -12 512 -4 467 -4
482 16 521 23 45 80 99 126 118 57 23 155 28 199 10 50 -21 66 -9 66 49 0 59
-33 103 -105 142 -120 64 -275 70 -383 15 l-63 -32 -37 19 c-132 67 -292 67
-424 0 l-37 -19 -68 32 c-57 27 -81 32 -153 35 -49 1 -104 -3 -130 -11z m468
-670 c29 -31 43 -58 52 -97 28 -131 38 -801 20 -1444 -8 -294 -11 -338 -30
-400 -16 -50 -32 -79 -59 -105 l-36 -35 -6 421 c-8 501 -14 600 -39 642 -12
19 -42 43 -76 60 l-57 29 47 22 c65 32 95 76 107 153 5 35 12 228 16 431 3
202 9 367 13 367 4 0 26 -20 48 -44z"/>
<path d="M12144 11916 c-111 -37 -192 -104 -237 -197 -38 -76 -51 -155 -37
-226 48 -263 323 -399 564 -279 85 42 141 98 183 185 25 49 28 68 28 151 0 83
-3 102 -28 151 -43 88 -98 143 -184 186 -66 33 -84 37 -161 40 -53 1 -103 -3
-128 -11z"/>
<path d="M37825 11912 c-116 -40 -191 -105 -243 -212 -24 -48 -27 -67 -27
-150 0 -83 3 -102 28 -151 42 -87 98 -143 183 -185 241 -120 516 16 564 279
27 145 -59 320 -190 387 -102 52 -222 64 -315 32z"/>
<path d="M10715 11722 c-50 -23 -91 -70 -105 -120 -12 -46 -12 -58 1 -105 34
-123 194 -177 301 -101 148 104 82 330 -99 341 -42 3 -69 -2 -98 -15z"/>
<path d="M39312 11719 c-141 -70 -140 -270 1 -338 109 -53 245 4 277 117 5 20
10 44 10 52 0 8 -5 32 -10 52 -32 113 -169 171 -278 117z"/>
</g>
</svg>
